<svg width="50" height="51" viewBox="0 0 50 51" fill="none" xmlns="http://www.w3.org/2000/svg">
<g clip-path="url(#clip0_406_296)">
<path d="M25 50.8181C38.8071 50.8181 50 39.6252 50 25.8181C50 12.011 38.8071 0.818115 25 0.818115C11.1929 0.818115 0 12.011 0 25.8181C0 39.6252 11.1929 50.8181 25 50.8181Z" fill="#F0F0F0"/>
<path d="M50 25.8182C50 15.9066 44.2319 7.34258 35.8695 3.29883V48.3374C44.2319 44.2938 50 35.7297 50 25.8182V25.8182Z" fill="#D80027"/>
<path d="M0 25.8182C0 35.7297 5.76807 44.2937 14.1305 48.3375V3.29883C5.76807 7.34258 0 15.9066 0 25.8182Z" fill="#6DA544"/>
<path d="M18.4782 25.8182C18.4782 29.4201 21.3981 32.34 25 32.34C28.6018 32.34 31.5218 29.4201 31.5218 25.8182V23.6443H18.4782V25.8182Z" fill="#6DA544"/>
<path d="M33.6956 21.4703H27.1738C27.1738 20.2697 26.2005 19.2964 24.9999 19.2964C23.7993 19.2964 22.826 20.2697 22.826 21.4703H16.3042C16.3042 22.671 17.35 23.6442 18.5505 23.6442H18.4781C18.4781 24.8449 19.4514 25.8182 20.6521 25.8182C20.6521 27.0188 21.6253 27.9921 22.826 27.9921H27.1738C28.3745 27.9921 29.3478 27.0188 29.3478 25.8182C30.5484 25.8182 31.5217 24.8449 31.5217 23.6442H31.4492C32.6499 23.6442 33.6956 22.671 33.6956 21.4703Z" fill="#FF9811"/>
</g>
<defs>
<clipPath id="clip0_406_296">
<rect width="50" height="50" fill="white" transform="translate(0 0.818115)"/>
</clipPath>
</defs>
</svg>
